<svg width="18" height="18" viewBox="0 0 18 18" fill="none" xmlns="http://www.w3.org/2000/svg">
<path fill-rule="evenodd" clip-rule="evenodd" d="M3.5956 5.29193C3.5956 4.35518 4.35535 3.59543 5.29135 3.59543H6.0631C6.5101 3.59543 6.93985 3.41843 7.25785 3.10268L7.7971 2.56268C8.45785 1.89893 9.53185 1.89593 10.1956 2.55668L10.2024 2.56268L10.7424 3.10268C11.0596 3.41843 11.4894 3.59543 11.9371 3.59543H12.7081C13.6449 3.59543 14.4046 4.35518 14.4046 5.29193V6.06218C14.4046 6.51068 14.5816 6.93968 14.8974 7.25768L15.4374 7.79768C16.1011 8.45843 16.1049 9.53168 15.4441 10.1962L15.4374 10.2029L14.8974 10.7429C14.5816 11.0594 14.4046 11.4899 14.4046 11.9369V12.7087C14.4046 13.6454 13.6449 14.4044 12.7081 14.4044H11.9371C11.4894 14.4044 11.0596 14.5822 10.7424 14.8979L10.2024 15.4372C9.54235 16.1017 8.46835 16.1047 7.80385 15.4439C7.8016 15.4417 7.79935 15.4394 7.7971 15.4372L7.25785 14.8979C6.93985 14.5822 6.5101 14.4044 6.0631 14.4044H5.29135C4.35535 14.4044 3.5956 13.6454 3.5956 12.7087V11.9369C3.5956 11.4899 3.41785 11.0594 3.1021 10.7429L2.56285 10.2029C1.89835 9.54218 1.89535 8.46818 2.5561 7.80443L2.56285 7.79768L3.1021 7.25768C3.41785 6.93968 3.5956 6.51068 3.5956 6.06218V5.29193Z" stroke="#D54205" stroke-linecap="round" stroke-linejoin="round"/>
<path d="M7.07227 10.9273L10.9273 7.07227" stroke="#D54205" stroke-linecap="round" stroke-linejoin="round"/>
<path d="M10.9248 11.492C10.7748 11.492 10.6323 11.432 10.5273 11.327C10.4748 11.2745 10.4373 11.207 10.4073 11.1395C10.3773 11.072 10.3623 11.0053 10.3623 10.9295C10.3623 10.8545 10.3773 10.7795 10.4073 10.712C10.4373 10.6445 10.4748 10.5845 10.5273 10.532C10.7373 10.322 11.1123 10.322 11.3223 10.532C11.3748 10.5845 11.4198 10.6445 11.4498 10.712C11.4723 10.7795 11.4873 10.8545 11.4873 10.9295C11.4873 11.0053 11.4723 11.072 11.4498 11.1395C11.4198 11.207 11.3748 11.2745 11.3223 11.327C11.2173 11.432 11.0748 11.492 10.9248 11.492Z" fill="#D54205"/>
<path d="M7.07031 7.63711C6.99531 7.63711 6.92781 7.62136 6.86031 7.59136C6.79281 7.56136 6.72531 7.52461 6.67281 7.47211C6.62031 7.41211 6.58281 7.35211 6.55281 7.28461C6.52281 7.21636 6.50781 7.14961 6.50781 7.07461C6.50781 6.99886 6.52281 6.92461 6.55281 6.85711C6.58281 6.78961 6.62031 6.72211 6.67281 6.67711C6.89031 6.46636 7.25781 6.46636 7.46781 6.67711C7.57281 6.78136 7.63281 6.92461 7.63281 7.07461C7.63281 7.14961 7.62531 7.21636 7.59531 7.28461C7.56531 7.35211 7.52031 7.41211 7.46781 7.47211C7.41531 7.52461 7.35531 7.56136 7.28781 7.59136C7.22031 7.62136 7.14531 7.63711 7.07031 7.63711Z" fill="#D54205"/>
</svg>
