<svg width="18" height="18" viewBox="0 0 18 18" fill="none" xmlns="http://www.w3.org/2000/svg">
<path fill-rule="evenodd" clip-rule="evenodd" d="M3.17969 7.7934C3.19049 4.61296 5.77751 2.04346 8.95795 2.05423C12.1384 2.06507 14.7079 4.65209 14.6971 7.83253V7.89774C14.6579 9.96514 13.5036 11.876 12.0884 13.3695C11.279 14.21 10.3752 14.954 9.39491 15.5869C9.13278 15.8136 8.74398 15.8136 8.48186 15.5869C7.02049 14.6357 5.73789 13.4348 4.69273 12.039C3.7612 10.822 3.23231 9.34472 3.17969 7.81296V7.7934Z" stroke="#D54205" stroke-linecap="round" stroke-linejoin="round"/>
<path d="M8.93843 9.7499C9.95775 9.7499 10.7841 8.92357 10.7841 7.90425C10.7841 6.88492 9.95775 6.05859 8.93843 6.05859C7.9191 6.05859 7.09277 6.88492 7.09277 7.90425C7.09277 8.92357 7.9191 9.7499 8.93843 9.7499Z" stroke="#D54205" stroke-linecap="round" stroke-linejoin="round"/>
</svg>
