<svg height="40" viewBox="0 0 40 40" width="40"
  xmlns="http://www.w3.org/2000/svg"
  xmlns:xlink="http://www.w3.org/1999/xlink">
  <clipPath id="a">
    <path d="m3.508 2.793h34v34h-34z"/>
  </clipPath>
  <g transform="translate(-.507 .207)">
    <rect fill="#383838" height="40" rx="20" width="40" x=".507" y="-.207"/>
    <g clip-path="url(#a)">
      <path d="m19.675 17a13.232 13.232 0 0 1 -1.6-.108c-.451-.055-.906-.133-1.39-.239-.432-.094-.878-.209-1.362-.35-.927-.27-1.856-.6-2.675-.887a24.438 24.438 0 0 0 -4.216-1.025c-.5-.084-1-.18-1.479-.287-.495-.11-.985-.234-1.458-.369s-.969-.294-1.435-.459-.952-.358-1.409-.558a3.182 3.182 0 0 1 -1.9-2.138c-.031-.107-.065-.216-.1-.32-.051-.185-.115-.375-.161-.566-.131-.556-.238-1.02-.325-1.5a9.842 9.842 0 0 1 -.165-1.539 8.152 8.152 0 0 1 .126-1.682 5.945 5.945 0 0 1 .211-.808 5.4 5.4 0 0 1 .336-.783 4.644 4.644 0 0 1 .54-.811 4.568 4.568 0 0 1 .663-.647 5.253 5.253 0 0 1 .771-.506 6.812 6.812 0 0 1 .862-.388 15.961 15.961 0 0 1 4.48-.953c.371-.027.749-.047 1.025-.062l.286-.015a18.761 18.761 0 0 1 2.2.12 9.937 9.937 0 0 1 1.978.437 8.212 8.212 0 0 1 1.507.709 11.358 11.358 0 0 1 2.142 1.651 25.347 25.347 0 0 1 1.837 2.01 3.524 3.524 0 0 0 2.816 1.718l.257.054.227.047c.343.071.7.145 1.041.238a6.074 6.074 0 0 1 1.008.36 3.119 3.119 0 0 1 .781.5 1.976 1.976 0 0 1 .532.779 1.751 1.751 0 0 1 .109.59c.01.475.037.965.081 1.5.038.455.089.943.156 1.493a3.219 3.219 0 0 1 .005.766 2.841 2.841 0 0 1 -.171.69 3.136 3.136 0 0 1 -.33.626 4.165 4.165 0 0 1 -.473.573 7.084 7.084 0 0 1 -.788.7 6.81 6.81 0 0 1 -.859.554 7.041 7.041 0 0 1 -.926.418 7.777 7.777 0 0 1 -.991.289 8.1 8.1 0 0 1 -1.764.178zm-10.838-16.23c-.406.014-.809.04-1.2.078s-.8.093-1.186.158a15.221 15.221 0 0 0 -2.328.586 5.294 5.294 0 0 0 -2.023 1.1 4.631 4.631 0 0 0 -1.378 3.318 13.719 13.719 0 0 0 .678 4.261 2.675 2.675 0 0 0 .593 1.108 2.826 2.826 0 0 0 1.021.7 22.484 22.484 0 0 0 5.076 1.494 31.163 31.163 0 0 1 5.752 1.475 18.393 18.393 0 0 0 4.689 1.152c.423.04.8.06 1.151.06a7.044 7.044 0 0 0 2.587-.458 6.239 6.239 0 0 0 .878-.413 5.78 5.78 0 0 0 1.519-1.257 3.953 3.953 0 0 0 .369-.476 1.394 1.394 0 0 0 .213-.573 3.922 3.922 0 0 0 0-.863c-.018-.194-.038-.391-.057-.582-.075-.746-.153-1.518-.162-2.282a1.268 1.268 0 0 0 -.57-1.066 2.716 2.716 0 0 0 -.645-.34 14.028 14.028 0 0 0 -2.123-.558l-.391-.084a5.457 5.457 0 0 1 -1.138-.355 3.12 3.12 0 0 1 -.984-.689c-.273-.285-.541-.582-.8-.883-.111-.13-.223-.263-.331-.392a14.434 14.434 0 0 0 -1.915-2 9.164 9.164 0 0 0 -3.256-1.845 11.361 11.361 0 0 0 -3.028-.378c-.113 0-.229 0-.345 0h-.443c-.083.001-.16.002-.223.004zm11.313 11.568-.258-.036c-1.181-.16-2.441-.355-3.851-.595-1.352-.23-2.7-.478-3.837-.69-1.115-.208-2.308-.434-3.476-.681-1.28-.27-2.408-.54-3.449-.823a4.673 4.673 0 0 1 -.834-.313 4.13 4.13 0 0 1 -1.345-1.056 4.752 4.752 0 0 1 -.51-.742 4.3 4.3 0 0 1 -.29-.634 3.534 3.534 0 0 1 -.17-.659 3.187 3.187 0 0 1 -.032-.682 3.274 3.274 0 0 1 .123-.7 2.42 2.42 0 0 1 .475-.894 3.105 3.105 0 0 1 .76-.643 5.994 5.994 0 0 1 1.26-.581 12.733 12.733 0 0 1 1.329-.359c.526-.116 1.065-.212 1.648-.294.523-.073 1.067-.133 1.663-.182h.122.137.136a11 11 0 0 1 2.257.3 8.7 8.7 0 0 1 1.082.345 8.1 8.1 0 0 1 1.045.5 5.56 5.56 0 0 1 1.012.752 9.772 9.772 0 0 1 .869.927c.617.737 1.166 1.374 1.679 1.948a4.571 4.571 0 0 0 3.048 1.579c.369.039.7.086 1.017.144a9.357 9.357 0 0 1 1 .238 2.247 2.247 0 0 1 .731.35 1.369 1.369 0 0 1 .324.343 1.221 1.221 0 0 1 .165.393 2.01 2.01 0 0 1 -.031.893 2.473 2.473 0 0 1 -.281.713 2.4 2.4 0 0 1 -.471.574 2.659 2.659 0 0 1 -1.386.633 3.435 3.435 0 0 1 -.511.036 8.221 8.221 0 0 1 -1.15-.104zm-12.366-9.638c-.785.117-1.541.261-2.022.386a6.616 6.616 0 0 0 -2.045.808 1.865 1.865 0 0 0 -.9 1.758 3.326 3.326 0 0 0 2.1 2.938 10.85 10.85 0 0 0 2.16.614c.2.042.4.085.606.131 2.232.507 4.475.928 6.375 1.273 2.128.383 4.409.776 6.669 1.06a4.356 4.356 0 0 0 .541.037 2.382 2.382 0 0 0 .793-.124 1.647 1.647 0 0 0 1.178-1.221 2.222 2.222 0 0 0 .062-.373.652.652 0 0 0 -.038-.283c-.067-.166-.222-.288-.518-.408a2.653 2.653 0 0 0 -.374-.12 12.9 12.9 0 0 0 -1.735-.31 5.413 5.413 0 0 1 -1-.194 5.013 5.013 0 0 1 -.909-.37 5.243 5.243 0 0 1 -.827-.542 6.131 6.131 0 0 1 -.746-.711c-.447-.5-.919-1.049-1.486-1.721l-.082-.1a7.5 7.5 0 0 0 -1.308-1.322 8.553 8.553 0 0 0 -4.559-1.406 16.231 16.231 0 0 0 -1.935.2zm-1.5 4.425a5.5 5.5 0 0 1 -1.256-.425 1.371 1.371 0 0 1 -.634-.585 1.718 1.718 0 0 1 -.184-.865 1.407 1.407 0 0 1 .258-.816 1.565 1.565 0 0 1 .672-.505 3.18 3.18 0 0 1 .789-.215 5.511 5.511 0 0 1 .814-.052h.1a4.452 4.452 0 0 1 .892.079 2.716 2.716 0 0 1 .843.316 2.22 2.22 0 0 1 .712.652 2.376 2.376 0 0 1 .369.906.942.942 0 0 1 -.1.651 2 2 0 0 1 -.418.5 1.917 1.917 0 0 1 -1.263.482c-.094 0-.189.005-.282.005a6.462 6.462 0 0 1 -1.31-.129zm.331-2.717a3.094 3.094 0 0 0 -1.285.246.67.67 0 0 0 -.405.622.755.755 0 0 0 .361.724 2.813 2.813 0 0 0 .915.325l.067.014h.007a6.461 6.461 0 0 0 1.276.172 2.883 2.883 0 0 0 .4-.027 1.345 1.345 0 0 0 .849-.402.464.464 0 0 0 .114-.525 1.544 1.544 0 0 0 -.766-.892 3.088 3.088 0 0 0 -1.466-.265z" fill="#fff" transform="translate(7.508 11.793)"/>
    </g>
  </g>
</svg>