<svg width="40" height="40" viewBox="0 0 40 40" fill="none"
  xmlns="http://www.w3.org/2000/svg">
  <path d="M40 20C40 8.9543 31.0457 0 20 0C8.9543 0 0 8.9543 0 20C0 31.0457 8.9543 40 20 40C31.0457 40 40 31.0457 40 20Z" fill="#383838"/>
  <path d="M19.4177 20.2481L19.5482 20.5188L19.606 20.2239C20.5743 15.275 24.3162 11.6 28.7516 11.6H31.9V12.25C31.9 18.4129 27.6686 23.4 22.4984 23.4H20.75H20.65V23.5V32.125C20.65 32.276 20.526 32.4 20.375 32.4H19.625C19.474 32.4 19.35 32.276 19.35 32.125V26.5V26.4H19.25H17.5016C12.3313 26.4 8.1 21.4129 8.1 15.25V14.6H11.2484C14.741 14.6 17.7899 16.8716 19.4177 20.2481ZM9.52344 15.9H9.41699L9.42363 16.0062C9.73986 21.0659 13.2277 25.1 17.5016 25.1H19.2266H19.3331L19.3264 24.9937C19.0054 19.9341 15.5223 15.9 11.2484 15.9H9.52344ZM20.6736 21.9938L20.667 22.1H20.7734H22.4984C26.7723 22.1 30.2601 18.0659 30.5764 13.0062L30.583 12.9H30.4766H28.7516C24.4777 12.9 20.9899 16.9341 20.6736 21.9938Z" fill="#E7E6E6" stroke="#383838" stroke-width="0.2"/>
</svg>
