<svg height="40" viewBox="0 0 40 40" width="40" xmlns="http://www.w3.org/2000/svg" xmlns:xlink="http://www.w3.org/1999/xlink"><clipPath id="a"><path d="m3.508 2.793h34v34h-34z"/></clipPath><g fill="#3e3a36" transform="translate(-.507 .207)"><rect height="40" rx="20" width="40" x=".507" y="-.207"/><g clip-path="url(#a)"><g transform="translate(10.508 9.723)"><path d="m16.15936661 20.14808083h-14.36387909c-.70827961 0-1.2856186-.57128525-1.29536378-1.27728272.02743381-.34789276.36195373-4.6782465.36195373-8.76067638 0-3.65743065-.26850038-7.19816494-.34435653-8.12526286l1.48486566-1.4848575h13.949682l1.48991203 1.48990363c-.05208206.88840806-.23455238 4.2619127-.23455238 7.90783632 0 4.11238956.23214149 8.67599487.24717331 8.96685028-.00647545.70881843-.5851059 1.28348923-1.29543495 1.28348923z"/><path d="m2.20969582 1.00000191-1.17514229 1.17513466c.09403801 1.19760704.32752418 4.51591777.32752418 7.93498516 0 4.01672744-.32224273 8.27135944-.36146164 8.77401447.0166359.42405128.36681557.76394463.79487229.76394463h14.36387825c.43172455 0 .78423118-.34572411.79522705-.77484513-.02167893-.42271614-.24696541-4.91749286-.24696541-8.97549438 0-3.40038872.1581955-6.56572724.22256279-7.71271515l-1.18503189-1.18502426zm-.41420746-1h14.36387825l1.79549026 1.79547882s-.24722862 3.83799076-.24722862 8.10226059c0 4.26428032.24722862 8.95484924.24722862 8.95484924 0 .99163056-.80386924 1.79549027-1.79549026 1.79549027h-14.36387825c-.99162102 0-1.79549027-.80385971-1.79549027-1.79549027 0 0 .36207962-4.47818947.36207962-8.74246883 0-4.26427079-.36207962-8.314641-.36207962-8.314641z" fill="#fff"/></g><path d="m9.725.251c-3.316-.482-7.581-.351-8.956 1.149-1.24 1.356-.749 4.043-.137 5.247.291.573.532.727.634.612.263-.306.264-1.186 5.38-1.144 2.194.018 4.614.291 5.186-1.588l.016-.048c.549-1.8.419-3.852-2.131-4.223" stroke="#fff" stroke-width=".8" transform="translate(13.65 16.456)"/><g transform="translate(15.508 6.793)"><path d="m8.60000038 4.5999999h-4.10000038-4.09999999v-2.95194995h2.32754001.25293994l.10844016-.22851992c.29839992-.62887001.83909988-1.01953002 1.41107988-1.01953002.57219982 0 1.11245012.39050999 1.40992022 1.01913997l.10831975.22890997h.25324011 2.3285203z"/><path d="m8.19999981 4.19999981v-2.15194988h-1.92851973-.50649023l-.21663999-.45781994c-.23064995-.48742998-.63234997-.79022998-1.04834986-.79022998-.41595984 0-.81818008.30309993-1.04970002.79099995l-.21687007.45704997h-.50588989-1.92754001v2.15194988h3.69999999zm.80000019.80000019h-4.5-4.5v-3.75195003h2.72754002c.35449004-.74706995 1.01561999-1.24804997 1.77245998-1.24804997.75684023 0 1.41797018.50098002 1.77148008 1.24804997h2.72851992z" fill="#fff"/></g></g></g></svg>