<svg height="40" viewBox="0 0 40 40" width="40"
  xmlns="http://www.w3.org/2000/svg"
  xmlns:xlink="http://www.w3.org/1999/xlink">
  <clipPath id="a">
    <path d="m438 406h34v34h-34z"/>
  </clipPath>
  <g transform="translate(-435 -403)">
    <circle cx="455" cy="423" fill="#383838" r="20"/>
    <g clip-path="url(#a)">
      <path d="m21.1 24.874a1.218 1.218 0 0 1 -.774-1.065c-.009-.112-.009-.224-.009-.336v-7.273c0-.621-.013-1.243-.009-1.864 0-.17-.079-.2-.227-.2q-.721.006-1.443 0c-.337 0-.433-.094-.433-.414v-13.311c0-.34.112-.429.485-.408a4.369 4.369 0 0 1 4.307 4.432c.009 3.081 0 6.162 0 9.243v.235h.003v9.58a1.393 1.393 0 0 1 -.523 1.215 1.348 1.348 0 0 1 -.817.292 1.391 1.391 0 0 1 -.56-.126zm-.208-8.711v7.267a2.394 2.394 0 0 0 .029.386.716.716 0 0 0 .345.5.76.76 0 0 0 .617.069.772.772 0 0 0 .539-.853v-7.032a4.308 4.308 0 0 0 -.007-.491c-.008-.062-.084-.165-.132-.166-.453-.013-.9-.008-1.376-.008-.007.127-.02.227-.02.328zm.047-.922h1.455v-.387h-1.46zm-1.375-12.52c.2.008.284.149.284.5v10.343h.377c.628 0 .628 0 .685.6 0 .014.016.028.027.046h1.463c.006-.069.014-.119.014-.169 0-3.236.015-6.473-.007-9.708a3.683 3.683 0 0 0 -2.142-3.371 2.954 2.954 0 0 0 -1.455-.373v12.961h.454v-10.328c0-.359.08-.5.282-.5zm-13.823 21.491a1.262 1.262 0 0 1 -.841-1.161c-.006-.086 0-.173 0-.259v-9.553-.362l-1.955.539q-1.18.324-2.359.652c-.471.132-.586.047-.586-.423v-11.157c0-.466 0-.932 0-1.4 0-.32.1-.417.433-.417 1.79 0 3.581-.008 5.37 0a1.668 1.668 0 0 1 1.789 1.8q0 3.729 0 7.457 0 6.433 0 12.865a1.434 1.434 0 0 1 -.4 1.139 1.351 1.351 0 0 1 -.924.39 1.423 1.423 0 0 1 -.527-.11zm-.264-8.8v7.428a1.523 1.523 0 0 0 .04.359.722.722 0 0 0 .351.452.769.769 0 0 0 1.132-.751q0-3.766 0-7.531a1.743 1.743 0 0 0 -.025-.207h-1.483c-.006.098-.015.173-.015.249zm.025-.842h1.459v-.388h-1.461zm-.02-1.97v.939h1.518v-11.061a1.164 1.164 0 0 0 -.355-.94 1.3 1.3 0 0 0 -.913-.3h-3.817c-.086 0-.172.011-.265.018v11.915c.107-.026.194-.044.278-.067l3.08-.849a.756.756 0 0 1 .2-.031c.186 0 .271.12.274.376zm-4.892-11.007v11.844c.448-.037.455-.043.455-.417v-11.734a1.563 1.563 0 0 0 -.3-.051c-.145-.001-.155.091-.155.358zm12.01 21.361c-.013-.38 0-.759 0-1.139v-5.978c0-.1 0-.207 0-.354h-1.585c-.46 0-.513-.052-.513-.485 0-1.381-.008-2.761 0-4.143a13.814 13.814 0 0 1 4.153-9.955c.03-.031.056-.077.094-.09.117-.041.261-.125.35-.089a.4.4 0 0 1 .188.3c.02.483.01.966.01 1.45v13.72q0 3.351 0 6.7a1.326 1.326 0 0 1 -.909 1.351 1.479 1.479 0 0 1 -.45.072 1.344 1.344 0 0 1 -1.338-1.36zm.587-4.863c0 1.622 0 3.244.012 4.868a.96.96 0 0 0 .219.559.688.688 0 0 0 .8.18.727.727 0 0 0 .481-.709c.006-.813 0-1.624 0-2.435s0-1.62 0-2.432c0-.184-.043-.267-.252-.259-.346.015-.695.011-1.042 0h-.018c-.156-.001-.202.069-.201.228zm.038-.817h1.443v-.394h-1.444zm-.035-1.98c-.005.252-.01.518.007.777 0 .066.091.18.143.181.443.011.887.005 1.356.005v-13.248a2.375 2.375 0 0 0 -.16.184 13.026 13.026 0 0 0 -2.376 7.161c-.037 1.45-.012 2.9-.013 4.35 0 .066.012.133.021.229h.656c.246.001.37.112.365.361zm1.381-13.478a12.918 12.918 0 0 0 -3.416 7.893c-.115 1.693-.05 3.4-.065 5.1a.512.512 0 0 0 .015.09c.436.082.453.069.453-.316 0-1.225-.023-2.451.009-3.677a18 18 0 0 1 .194-2.447 13.635 13.635 0 0 1 2.8-6.273 1.84 1.84 0 0 0 .185-.408l-.079-.039a.8.8 0 0 0 -.096.077zm-9.383 1.617a.8.8 0 0 1 -.809-.776.785.785 0 0 1 .406-.7.838.838 0 0 1 .827.005.784.784 0 0 1 .4.7.8.8 0 0 1 -.815.765zm0-.98c-.08.009-.146.13-.219.2.081.073.154.191.244.207.067.009.158-.114.294-.221-.143-.09-.234-.19-.311-.19z" fill="#fff" transform="translate(443 411)"/>
    </g>
  </g>
</svg>