<svg height="40" viewBox="0 0 40 40" width="40" xmlns="http://www.w3.org/2000/svg" xmlns:xlink="http://www.w3.org/1999/xlink"><clipPath id="a"><path d="m3.508 2.793h34v34h-34z"/></clipPath><g transform="translate(-.507 .207)"><rect fill="#3e3a36" height="40" rx="20" width="40" x=".507" y="-.207"/><g clip-path="url(#a)" fill="none" stroke="#fff" stroke-width=".8"><path d="m0 7.634h1.743a1.807 1.807 0 0 1 -.5-.945 4.421 4.421 0 0 1 -.2-1.163 1.774 1.774 0 0 1 .543-1.389 13.873 13.873 0 0 1 7.847-3.914 21.692 21.692 0 0 1 2.553-.223 15.52 15.52 0 0 1 5.993 1 12.347 12.347 0 0 1 5.095 3.6 2.008 2.008 0 0 1 .192 2.193 2.976 2.976 0 0 1 -.3.55h1.6l-1.485 1.985c-.093-.642-.174-1.217-.256-1.791a2.954 2.954 0 0 1 -1.923 1 4.8 4.8 0 0 1 -1.67-.047.637.637 0 0 1 -.45-.313 6.442 6.442 0 0 0 -5.057-3.109 9.429 9.429 0 0 0 -4.309.377 8.952 8.952 0 0 0 -2.991 1.88c-.255.228-.529.439-.769.68a2.274 2.274 0 0 1 -2.678.4 4.084 4.084 0 0 1 -.891-.505v1.791z" transform="matrix(.914 -.407 .407 .914 5.309 15.317)"/><path d="m0 7.634h1.743a1.807 1.807 0 0 1 -.5-.945 4.421 4.421 0 0 1 -.2-1.163 1.774 1.774 0 0 1 .543-1.389 13.873 13.873 0 0 1 7.847-3.914 21.692 21.692 0 0 1 2.553-.223 15.52 15.52 0 0 1 5.993 1 12.347 12.347 0 0 1 5.095 3.6 2.008 2.008 0 0 1 .192 2.193 2.976 2.976 0 0 1 -.3.55h1.6l-1.485 1.985c-.093-.642-.174-1.217-.256-1.791a2.954 2.954 0 0 1 -1.923 1 4.8 4.8 0 0 1 -1.67-.047.637.637 0 0 1 -.45-.313 6.442 6.442 0 0 0 -5.057-3.109 9.429 9.429 0 0 0 -4.309.377 8.952 8.952 0 0 0 -2.991 1.88c-.255.228-.529.439-.769.68a2.274 2.274 0 0 1 -2.678.4 4.084 4.084 0 0 1 -.891-.505v1.791z" transform="matrix(.914 -.407 .407 .914 9.034 23.681)"/></g></g></svg>