<svg height="40" viewBox="0 0 40 40" width="40"
  xmlns="http://www.w3.org/2000/svg"
  xmlns:xlink="http://www.w3.org/1999/xlink">
  <clipPath id="a">
    <path d="m3.508 2.793h34v34h-34z"/>
  </clipPath>
  <g transform="translate(-.507 .207)">
    <rect fill="#383838" height="40" rx="20" width="40" x=".507" y="-.207"/>
    <g clip-path="url(#a)">
      <path d="m15.439 22a3.018 3.018 0 0 1 -1.563-.458l-.177-.1c-.205-.12-.416-.242-.612-.379a2.931 2.931 0 0 0 -1.746-.53 4.6 4.6 0 0 0 -.706.058 4.666 4.666 0 0 0 -1.046.246.54.54 0 0 1 -.2.042.452.452 0 0 1 -.317-.136.471.471 0 0 1 -.125-.511 6.7 6.7 0 0 0 .176-2.759 7.4 7.4 0 0 0 -.185-.862l-.025-.1c-.03-.116-.073-.153-.181-.153h-.045c-.367.024-.7.035-1.014.035a8.661 8.661 0 0 1 -2.494-.327 4.39 4.39 0 0 1 -3.134-2.949 4.03 4.03 0 0 1 .155-2.668 4.7 4.7 0 0 1 .687-1.255 1.226 1.226 0 0 0 .075-.111l.038-.053-.415-.04c-.271-.026-.526-.05-.784-.083a4.96 4.96 0 0 1 -1.277-.293.812.812 0 0 1 -.488-.433.762.762 0 0 1 .073-.614 2.64 2.64 0 0 1 1.366-1.194 4.041 4.041 0 0 1 1.739-.421 3.451 3.451 0 0 1 .543.048.544.544 0 0 0 .054 0h.05a3.893 3.893 0 0 1 -.244-1.2 3.3 3.3 0 0 1 .355-1.592 1.155 1.155 0 0 1 .974-.477.884.884 0 0 1 .2.022 2.084 2.084 0 0 1 1.195.867 7.184 7.184 0 0 1 1.382 3.424 5.518 5.518 0 0 1 2.46-1.958l-.105-.058-.21-.117a7.737 7.737 0 0 1 -2.247-1.711 1.7 1.7 0 0 1 -.433-1.63.483.483 0 0 1 .262-.314 2.127 2.127 0 0 1 1.025-.251 3.255 3.255 0 0 1 .843.122 6.01 6.01 0 0 1 2.914 1.822l.028.031.058.064a.036.036 0 0 0 .014.007l.019.008c.029-.092.058-.186.085-.276.058-.19.118-.385.182-.576a9.272 9.272 0 0 1 .863-1.933.485.485 0 0 1 .424-.274h.05a.453.453 0 0 1 .411.3.485.485 0 0 1 -.039.433 11.421 11.421 0 0 0 -1.227 3.346.369.369 0 0 0 .018.308.38.38 0 0 0 .3.111 7.933 7.933 0 0 1 2.318.472 4.209 4.209 0 0 1 .055-1.021 2.055 2.055 0 0 1 .791-1.272 2.228 2.228 0 0 1 1.316-.42 2.251 2.251 0 0 1 .927.2 3.829 3.829 0 0 1 1.375 1.076.216.216 0 0 0 .172.1.357.357 0 0 0 .1-.017 3.742 3.742 0 0 1 1.044-.166 2.432 2.432 0 0 1 .782.124 2.088 2.088 0 0 1 1.418 1.691 2.652 2.652 0 0 1 -.1 1.353l-.016.062c-.016.055-.033.11-.052.173h.086.2s.133 0 .2 0a1.584 1.584 0 0 1 .279.021 1.9 1.9 0 0 1 1.651 1.7 2.472 2.472 0 0 1 -1.178 2.589 1.276 1.276 0 0 1 -.158.087.536.536 0 0 0 -.247.18c-.048.087.012.177.076.271a.714.714 0 0 1 .089.158 1.274 1.274 0 0 1 -.675 1.566 1.792 1.792 0 0 1 -.889.247 2.146 2.146 0 0 1 -1.075-.321 2.827 2.827 0 0 1 -.557-.4.294.294 0 0 0 -.213-.09.49.49 0 0 0 -.1.011c-.5.1-1.006.207-1.5.306l-.624.127a.277.277 0 0 0 .08.181c.014.018.028.036.04.055a7.787 7.787 0 0 1 1.152 2.749 5.9 5.9 0 0 1 -.333 3.489 3.441 3.441 0 0 1 -2.4 1.953 7.56 7.56 0 0 1 -1.917.268zm-4.058-2.437a3.741 3.741 0 0 1 2.129.619c.306.2.629.391.941.574l.033.019a1.65 1.65 0 0 0 .689.232c.158.015.32.022.481.022a5.271 5.271 0 0 0 2.048-.412 2.322 2.322 0 0 0 1.386-1.517 4.871 4.871 0 0 0 .15-2.624 7.124 7.124 0 0 0 -4.07-5.063 6.6 6.6 0 0 0 -2.749-.653h-.063a3 3 0 0 0 -2.169.821 2.983 2.983 0 0 0 -.774 2.195 8.535 8.535 0 0 0 .384 2.3 7.89 7.89 0 0 1 .322 3.132c-.012.105-.022.209-.033.318q-.009.086-.017.174l.632-.082a5.3 5.3 0 0 1 .68-.055zm-4.223-11.472h-.024a4.378 4.378 0 0 0 -3.289 1.45 3.675 3.675 0 0 0 -.975 2.587 3.114 3.114 0 0 0 2.057 2.82 6.918 6.918 0 0 0 2.87.472h.561c.135 0 .209 0 .238-.038s.016-.1-.008-.228v-.008a6.02 6.02 0 0 1 -.035-2.488.154.154 0 0 0 -.073-.18 2.172 2.172 0 0 1 -.694-.887 6.458 6.458 0 0 1 -.534-3.279.327.327 0 0 1 .015-.063c.014-.046.028-.093 0-.124s-.051-.034-.109-.034zm14.342 3.709a.229.229 0 0 1 .194.112 2.309 2.309 0 0 0 .812.658 1.03 1.03 0 0 0 .465.122.885.885 0 0 0 .512-.172.289.289 0 0 0 .117-.42 1.551 1.551 0 0 0 -.443-.491c-.167-.13-.339-.259-.52-.4l-.233-.175.189-.048.295-.074a3.812 3.812 0 0 0 1.439-.6 1.575 1.575 0 0 0 .638-1.791.893.893 0 0 0 -.8-.707 1.543 1.543 0 0 0 -.209-.013 3.555 3.555 0 0 0 -.507.049l-.054.008a.958.958 0 0 0 -.242.082.715.715 0 0 1 -.273.082.244.244 0 0 1 -.124-.032.972.972 0 0 1 -.287-.309 1.913 1.913 0 0 0 -.158-.205c-.1-.112-.086-.189-.008-.31a2.774 2.774 0 0 0 .48-1.38 1.326 1.326 0 0 0 -.339-1.011 1.255 1.255 0 0 0 -.932-.367 1.774 1.774 0 0 0 -.193.011 3.3 3.3 0 0 0 -1.111.323.628.628 0 0 1 -.224.087c-.07 0-.108-.063-.2-.216a3.133 3.133 0 0 0 -1.274-1.24 1.4 1.4 0 0 0 -.635-.159 1.178 1.178 0 0 0 -1.164 1.15 3.68 3.68 0 0 0 .067 1.023.561.561 0 0 0 .194.318 3.894 3.894 0 0 1 1.36 3.507 5.55 5.55 0 0 1 -.821 2.3c-.075.12-.064.185.047.278a4.592 4.592 0 0 1 .507.495.355.355 0 0 0 .284.143.605.605 0 0 0 .124-.015c.528-.111 1.066-.219 1.587-.324.443-.089.9-.181 1.348-.274a.446.446 0 0 1 .092-.015zm-8.6-6.357a5.714 5.714 0 0 0 -1.123.105 5.962 5.962 0 0 0 -2.247 1 2.868 2.868 0 0 0 -1.3 1.795 4.232 4.232 0 0 0 .027 1.428 3.733 3.733 0 0 0 .532 1.635c.07.1.1.153.141.153s.07-.048.138-.147a3.592 3.592 0 0 1 2.227-1.5 5.027 5.027 0 0 1 1.114-.122 6.38 6.38 0 0 1 1.432.172 8.908 8.908 0 0 1 2.645 1.063l.01.006a.23.23 0 0 0 .107.045c.036 0 .067-.026.1-.082a4.791 4.791 0 0 0 .7-2.266 2.976 2.976 0 0 0 -1.17-2.381 4.135 4.135 0 0 0 -2-.787 8.574 8.574 0 0 0 -1.326-.115zm-9.285 2.657a.981.981 0 0 1 .126.011.983.983 0 0 0 .13.012.282.282 0 0 0 .164-.045 6.377 6.377 0 0 1 .691-.393c.046-.022.069-.044.07-.065s-.03-.053-.066-.079l-.082-.059a2.658 2.658 0 0 0 -.81-.449 2.642 2.642 0 0 0 -.712-.1 3.118 3.118 0 0 0 -1.911.747l-.015.011c-.034.024-.073.05-.06.1s.053.048.093.051a.291.291 0 0 1 .037 0 15.918 15.918 0 0 0 2.038.24l.233.017a.347.347 0 0 1 .074.001zm1.317-4.4c-.1 0-.165.072-.215.227a2.459 2.459 0 0 0 -.135.777 3.607 3.607 0 0 0 1.04 2.315.582.582 0 0 0 .438.238.593.593 0 0 0 .213-.044.462.462 0 0 1 .151-.022h.062c.135-.012.21-.019.239-.057s.02-.1 0-.233a6.434 6.434 0 0 0 -.969-2.452 2.133 2.133 0 0 0 -.6-.66.414.414 0 0 0 -.224-.089zm3.475-1.738h-.036c-.155.009-.226.031-.252.076s-.01.119.06.261a2.125 2.125 0 0 0 .494.617 10.781 10.781 0 0 0 2.42 1.551 1.034 1.034 0 0 0 .488.123 1.015 1.015 0 0 0 .232-.026c.133-.028.215-.055.237-.107s-.014-.131-.081-.24a5.015 5.015 0 0 0 -1.917-1.78 3.519 3.519 0 0 0 -1.572-.474h-.073z" fill="#fff" transform="translate(7.508 8.828)"/>
    </g>
  </g>
</svg>