<svg height="40" viewBox="0 0 40 40" width="40"
  xmlns="http://www.w3.org/2000/svg"
  xmlns:xlink="http://www.w3.org/1999/xlink">
  <clipPath id="a">
    <path d="m3.508 2.793h34v34h-34z"/>
  </clipPath>
  <g transform="translate(-.507 .207)">
    <rect fill="#383838" height="40" rx="20" width="40" x=".507" y="-.207"/>
    <g clip-path="url(#a)">
      <g stroke="#fff">
        <g fill="none">
          <path d="m0 0 22 1" transform="translate(9.508 14.563)"/>
          <path d="m0 0 22 1" transform="translate(9.508 17.563)"/>
          <path d="m0 0 22 1" transform="translate(9.508 20.563)"/>
          <path d="m22 1-22-1" transform="translate(9.508 23.563)"/>
        </g>
        <path d="m436.739-940.591a1.456 1.456 0 0 1 .892.15 6.679 6.679 0 0 1 1.258.956 4.023 4.023 0 0 1 .641 1.1 3.165 3.165 0 0 1 .188.3c.116.323.2.658.349.969.2.431.276.9.467 1.331.094.214.178.439.255.664.086.253.22.491.326.739a6.261 6.261 0 0 0 .451 1 2.411 2.411 0 0 0 .387.418 2.084 2.084 0 0 1 .574.822 2.08 2.08 0 0 1 .13.535c.025.4.086.8.073 1.2a3.766 3.766 0 0 0 .208 1.373 2.139 2.139 0 0 1 .134.46 2.505 2.505 0 0 1 -.127.636 1.434 1.434 0 0 0 -.023.343c.005.048.007.1.016.145a.507.507 0 0 1 -.36.6 1.239 1.239 0 0 0 -.407.338.914.914 0 0 1 -.522.274 5.461 5.461 0 0 1 -1.665.148 2.418 2.418 0 0 0 -.907.15 5.284 5.284 0 0 1 -1 .2 1.4 1.4 0 0 0 -.531.171.913.913 0 0 1 -.59.1 2.583 2.583 0 0 0 -.667.076 10.535 10.535 0 0 1 -1.742.007c-.323-.022-.645-.062-.968-.1a.926.926 0 0 1 -.276-.051 2.362 2.362 0 0 0 -1.194-.157 2.148 2.148 0 0 1 -.812-.209c-.173-.055-.336-.137-.507-.2a1.66 1.66 0 0 1 -.739-.545c-.2-.238-.379-.488-.561-.737a1.318 1.318 0 0 1 -.1-1.257 2.393 2.393 0 0 0 .076-.75c0-.1-.03-.193-.03-.291 0-.485-.014-.97.019-1.454.023-.333.016-.667.071-1a7.992 7.992 0 0 1 .764-2.22 12.27 12.27 0 0 1 1.14-1.891c.218-.295.432-.592.648-.888a1.557 1.557 0 0 0 .185-.3 1.882 1.882 0 0 1 .455-.6c.514-.493.95-1.046 1.417-1.574a2.843 2.843 0 0 1 1.535-.873 3.631 3.631 0 0 1 1.069-.108zm-.691 6.793.014.067a.508.508 0 0 0 -.064.04c-.03.026-.066.055-.051.1s.057.036.094.036c.055 0 .111-.009.121-.069a.513.513 0 0 0 0-.158 2.264 2.264 0 0 1 -.057-.343.289.289 0 0 0 -.163-.245.309.309 0 0 0 -.34 0c-.1.06-.07.153-.077.245-.01.12.173.172.1.3 0 0 .021.027.031.027.133-.01.237.189.392-.002zm1.661 1.185c.006-.163.006-.163-.06-.178a.278.278 0 0 0 -.354.221c-.007.049-.014.1.039.131a.122.122 0 0 0 .143-.025c.028-.02.055-.064.091-.042.232.145.094-.08.14-.108zm.537-4.585c.015-.22-.1-.344-.257-.288a.26.26 0 0 1 -.311-.041.064.064 0 0 0 -.072-.016.045.045 0 0 0 -.029.047c0 .083.211.2.281.145a.135.135 0 0 1 .192.008c.057.043.119.089.195.143zm-3 3.14c.06-.01.12-.016.178-.031a.056.056 0 0 0 .044-.079c-.012-.031-.049-.052-.074-.035-.083.054-.231.059-.247.153a.322.322 0 0 0 .139.33c0-.143.037-.228.18-.112.025-.175-.121-.168-.225-.226z" fill="#383838" stroke-width=".8" transform="translate(-415.671 953.692)"/>
        <path d="m436.739-940.591a1.363 1.363 0 0 1 .892.162 6.764 6.764 0 0 1 1.258 1.033 4.437 4.437 0 0 1 .641 1.184 3.477 3.477 0 0 1 .188.325c.116.349.2.711.349 1.047.2.466.276.969.467 1.438.094.232.178.475.255.717.086.273.22.531.326.8a7.047 7.047 0 0 0 .451 1.085 2.539 2.539 0 0 0 .387.451 2.264 2.264 0 0 1 .574.888 2.4 2.4 0 0 1 .13.579c.025.432.086.862.073 1.3a4.371 4.371 0 0 0 .208 1.484 2.454 2.454 0 0 1 .134.5 2.9 2.9 0 0 1 -.127.688 1.671 1.671 0 0 0 -.023.37c.005.052.007.1.016.156a.553.553 0 0 1 -.36.653c-.17.08-.93.6-3.394 0s-2.688-2.8-6.459-2.418-3.05 2.107-3.232 1.838a1.524 1.524 0 0 1 -.1-1.359 2.784 2.784 0 0 0 .076-.81c0-.108-.03-.209-.03-.314 0-.524-.014-1.048.019-1.571.023-.36.016-.721.071-1.08a9.116 9.116 0 0 1 .764-2.4 13.515 13.515 0 0 1 1.14-2.043c.218-.318.432-.639.648-.959a1.708 1.708 0 0 0 .185-.328 2.03 2.03 0 0 1 .455-.653c.514-.532.95-1.13 1.417-1.7a2.8 2.8 0 0 1 1.535-.944 3.371 3.371 0 0 1 1.066-.119z" fill="#383838" stroke-width=".8" transform="translate(-415.671 951.394)"/>
      </g>
      <g fill="#383838" transform="matrix(-.98162718 -.190809 .190809 -.98162718 23.241 26.802)">
        <path d="m0 .618c1.829.019 2.514.282 5.407.157a16.637 16.637 0 0 0 3.4-.414c-.3-.469-1.551-.444-3.25-.14-1.166.21-4.509.144-5.557.397z"/>
        <path d="m3.98268795.80761039c-1.76778936-.0000174-2.4986341-.17417508-3.98269106-.18982464 1.04803003-.25244 4.39134003-.18649998 5.55832983-.39589.78561449-.14091721 1.47459841-.22189608 2.01848555-.22189608.63217783 0 1.06825781.10950367 1.23110437.36157608-1.86790991.22338-.50763988.29156003-3.40089989.41358999-.54601812.02302962-1.01310396.03244871-1.4243288.03244465z" fill="#fff"/>
      </g>
    </g>
  </g>
</svg>