<svg height="40" viewBox="0 0 40 40" width="40"
  xmlns="http://www.w3.org/2000/svg"
  xmlns:xlink="http://www.w3.org/1999/xlink">
  <clipPath id="a">
    <path d="m3.508 2.793h34v34h-34z"/>
  </clipPath>
  <g transform="translate(-.507 .207)">
    <rect fill="#383838" height="40" rx="20" width="40" x=".507" y="-.207"/>
    <g clip-path="url(#a)">
      <path d="m18.217 1.8a5.9 5.9 0 0 0 -4.11-1.779 6 6 0 0 0 -4.294 1.839 8.3 8.3 0 0 0 -2.213 4.083 8.436 8.436 0 0 1 -2.277 4.272l-.05.05a.593.593 0 0 0 0 .839l.263.263-2.252 2.254a2.21 2.21 0 0 0 -1.149-.283 2.2 2.2 0 0 0 -.059 4.4.222.222 0 0 1 .2.2 2.2 2.2 0 1 0 4.124-1.202l2.254-2.254.263.263a.593.593 0 0 0 .839 0l.05-.05a8.443 8.443 0 0 1 4.274-2.278 8.308 8.308 0 0 0 4.078-2.206 6 6 0 0 0 1.842-4.295 5.9 5.9 0 0 0 -1.783-4.116zm-13.017 14.458a.593.593 0 0 0 0 .839 1.016 1.016 0 0 1 -.05 1.483 1.027 1.027 0 0 1 -1.34 0 1.012 1.012 0 0 1 -.345-.705 1.4 1.4 0 0 0 -1.321-1.321 1.012 1.012 0 0 1 -.705-.345 1.027 1.027 0 0 1 0-1.34 1.009 1.009 0 0 1 .732-.345h.029a1.006 1.006 0 0 1 .717.3.593.593 0 0 0 .839 0l2.616-2.616 1.437 1.436zm12.12-6.887a7.192 7.192 0 0 1 -3.48 1.884 9.669 9.669 0 0 0 -4.494 2.245l-2.822-2.826a9.659 9.659 0 0 0 2.241-4.49 7.19 7.19 0 0 1 1.886-3.484 4.6 4.6 0 0 1 6.726-.057 4.6 4.6 0 0 1 -.059 6.729z" fill="#f9f9f9" transform="translate(10.507 9.774)"/>
    </g>
  </g>
</svg>