<svg height="40" viewBox="0 0 40 40" width="40"
  xmlns="http://www.w3.org/2000/svg"
  xmlns:xlink="http://www.w3.org/1999/xlink">
  <clipPath id="a">
    <path d="m3.508 2.793h34v34h-34z"/>
  </clipPath>
  <g transform="translate(-.507 .207)">
    <rect fill="#383838" height="40" rx="20" width="40" x=".507" y="-.207"/>
    <g clip-path="url(#a)">
      <path d="m20490.785 7526.637a43.687 43.687 0 0 1 -6.857-3.182c-.479-.2-5.041-2.155-5.4-5.236-.187-1.611.793-3.182 2.906-4.667q.483-.34.963-.614a4.441 4.441 0 0 1 .373-2.694c1.029-2.266 3.7-4.134 7.922-5.563 3.645-1.234 6.43-1.178 8.289.156a5.667 5.667 0 0 1 2.174 4.164 2.867 2.867 0 0 1 .268 2.084c-.508 2.2-3.137 4.438-7.822 6.647.508 1.822 1.527 6.219.135 8.125a2.25 2.25 0 0 1 -1.908.937 3.876 3.876 0 0 1 -1.043-.157zm-8.721-12.189c-1.764 1.238-2.586 2.462-2.449 3.645.246 2.11 3.514 3.862 4.75 4.36.023.01.043.02.064.03a44.462 44.462 0 0 0 6.637 3.1c.859.232 1.436.126 1.793-.367 1.135-1.556.029-6.163-.508-7.86-.189-.387-2.318-4.466-6.045-4.466a7.464 7.464 0 0 0 -4.242 1.558zm11.178 2.244q1.116-.532 2.014-1.033a4.4 4.4 0 0 0 -.443-2.7.218.218 0 0 1 -.031-.07c-1.613-4.279-8.48-4.048-9.689-3.972a5.888 5.888 0 0 0 -1.311 1.736 3.549 3.549 0 0 0 -.354 1.768 7.28 7.28 0 0 1 2.879-.629c4.088.002 6.408 3.902 6.935 4.899zm2.543-4.217a5.893 5.893 0 0 1 .641 2.493c2.914-1.832 3.723-3.276 3.926-4.084a1.636 1.636 0 0 0 -.162-1.359.6.6 0 0 1 -.121-.342 4.662 4.662 0 0 0 -1.732-3.464c-1.555-1.113-4.006-1.113-7.289 0a20.074 20.074 0 0 0 -4.5 2.076c2.698.051 7.718.705 9.237 4.679zm-6.3 11.409a30.481 30.481 0 0 1 -4.721-2.19c-.387-.161-3.535-1.536-3.789-3.716-.137-1.173.561-2.3 2.063-3.358a6 6 0 0 1 3.43-1.233c3.248 0 4.91 3.458 4.98 3.6.006.021.014.041.02.066.15.463 1.416 4.586.227 6.228a1.713 1.713 0 0 1 -1.445.7 3.072 3.072 0 0 1 -.77-.098zm-5.82-8.368c-1.148.806-1.691 1.591-1.6 2.331.154 1.359 2.318 2.512 3.143 2.845l.059.03a31.14 31.14 0 0 0 4.5 2.1 2 2 0 0 0 .479.07.619.619 0 0 0 .563-.262c.65-.891.125-3.65-.369-5.206-.154-.3-1.555-2.945-3.975-2.945a4.963 4.963 0 0 0 -2.805 1.036zm4.3 6.032a15.28 15.28 0 0 1 -2.412-1.108c-.311-.131-1.9-.856-2.043-2.074a2.127 2.127 0 0 1 1.146-1.933 3.253 3.253 0 0 1 1.867-.665 3.381 3.381 0 0 1 2.736 1.954.486.486 0 0 1 .025.07c.182.563.719 2.467.07 3.353a1.132 1.132 0 0 1 -.939.468 1.608 1.608 0 0 1 -.456-.066zm-2.682-4.219c-.277.191-.729.564-.687.911.055.5.988 1.027 1.4 1.193l.066.03a13.7 13.7 0 0 0 2.184 1.027c.18.051.221.02.221.02a3.832 3.832 0 0 0 -.211-2.346c-.1-.187-.719-1.3-1.732-1.3a2.194 2.194 0 0 0 -1.247.464z" fill="#f9f9f9" transform="translate(-20470 -7495)"/>
    </g>
  </g>
</svg>