<svg width="30" height="30" viewBox="0 0 30 30" fill="none" xmlns="http://www.w3.org/2000/svg">
<g clip-path="url(#clip0_4956_4957)">
<rect width="30" height="30" rx="15" fill="#3E3A36"/>
<path d="M29.625 15C29.625 6.92283 23.0772 0.375 15 0.375C6.92283 0.375 0.375 6.92283 0.375 15C0.375 23.0772 6.92283 29.625 15 29.625C23.0772 29.625 29.625 23.0772 29.625 15Z" fill="#3E3A36"/>
<path d="M6.67601 16.1095C6.67601 17.8436 7.12687 19.439 7.92456 20.8263C8.09797 21.1731 8.58352 21.2772 8.96502 20.965L13.8205 17.1847L7.09219 14.4795C6.98815 14.4448 6.91878 14.3754 6.81474 14.3407C6.71069 14.9303 6.67601 15.5199 6.67601 16.1095ZM6.36387 13.8552C6.19046 13.6124 6.12109 13.3003 6.12109 12.9881C6.12109 12.8147 6.12109 12.6413 6.19046 12.5026C7.2656 9.5893 9.55462 7.30028 12.4679 6.22514C12.6066 6.15578 12.7801 6.12109 12.9535 6.12109C13.3003 6.12109 13.5777 6.22514 13.8205 6.39855C14.5488 6.22514 15.3118 6.12109 16.1095 6.12109C17.913 6.12109 19.6124 6.60664 21.0691 7.47369C21.6587 7.78583 21.7974 8.47948 21.5546 9.03439C22.5257 9.93612 23.2887 11.0113 23.7743 12.2598C23.8436 12.3986 23.8783 12.5373 23.8783 12.676V12.8841C23.8783 13.439 23.3928 13.8899 22.8379 13.8899C22.7685 13.8899 22.7338 13.8899 22.6644 13.8899L20.1327 13.4737C19.6818 13.4043 19.1616 13.335 18.676 13.335H18.2598L17.3234 14.5488C17.3928 15.1731 17.1847 15.8668 16.6991 16.3176L16.3176 16.7338C15.8321 17.2194 15.1731 17.4275 14.5142 17.3581L13.335 18.2945V18.7107C13.335 19.1962 13.3696 19.6818 13.439 20.1673L13.8552 22.6991C13.8899 22.7685 13.8899 22.8032 13.8899 22.8725C13.8899 23.4275 13.4043 23.8783 12.8494 23.8783H12.676C12.5026 23.8783 12.3639 23.8783 12.2251 23.809C11.0113 23.3234 9.90144 22.5604 8.99971 21.5893C8.44479 21.8321 7.75115 21.6587 7.43901 21.1038C6.60664 19.6471 6.12109 17.9477 6.12109 16.1095C6.12109 15.3465 6.19046 14.5835 6.36387 13.8552ZM14.3061 6.84942C14.3407 6.95346 14.4101 7.02283 14.4448 7.12687L17.15 13.8552L20.9303 8.99971C21.2425 8.6182 21.1384 8.13265 20.7916 7.95924C19.4043 7.16156 17.809 6.67601 16.1095 6.67601C15.4853 6.67601 14.8957 6.74537 14.3061 6.84942ZM13.8552 22.6991L13.3003 22.8032L12.8841 20.2714C12.8147 19.7512 12.7801 19.2309 12.7801 18.7107L9.48526 21.2772C10.2829 22.1442 11.3234 22.8379 12.4332 23.2887C12.5026 23.3234 12.572 23.3234 12.676 23.3234H12.8494C13.0922 23.3234 13.335 23.1153 13.335 22.8725C13.335 22.8379 13.3003 22.8032 13.3003 22.8032L13.8552 22.6991ZM18.676 12.7801C19.1962 12.7801 19.7165 12.8494 20.2367 12.9188L22.7685 13.335C22.8032 13.335 22.8032 13.335 22.8379 13.335C23.1153 13.335 23.3234 13.1269 23.3234 12.8841V12.676C23.3234 12.6066 23.2887 12.5373 23.2887 12.4679C22.8032 11.3581 22.1095 10.3176 21.2425 9.51994L18.676 12.7801ZM6.71069 12.676C6.67601 12.7801 6.67601 12.8841 6.67601 12.9881C6.67601 13.439 6.91878 13.7858 7.30028 13.9592L14.098 16.6991C14.7222 16.9419 15.4506 16.8032 15.9014 16.3176L16.2829 15.9361C16.7685 15.4853 16.9072 14.7569 16.6644 14.1327L13.9246 7.33497C13.7512 6.95346 13.4043 6.67601 12.9535 6.67601C12.8494 6.67601 12.7454 6.71069 12.6413 6.74537C9.90144 7.75115 7.71647 9.93612 6.71069 12.676Z" fill="white"/>
<path d="M23.8786 12.6763C23.8786 12.5376 23.8439 12.3988 23.7746 12.2601C23.289 11.0116 22.526 9.93642 21.5549 9.03468C21.7977 8.47977 21.659 7.78613 21.0694 7.47399C19.6127 6.60694 17.9133 6.12139 16.1098 6.12139C15.3121 6.12139 14.5491 6.22543 13.8208 6.39884C13.578 6.22543 13.3006 6.12139 12.9538 6.12139C12.7803 6.12139 12.6069 6.15607 12.4682 6.22543C9.55491 7.30058 7.2659 9.5896 6.19075 12.5029C6.12139 12.6416 6.12139 12.815 6.12139 12.9884C6.12139 13.3006 6.19075 13.6127 6.36416 13.8555C6.19075 14.5838 6.12139 15.3468 6.12139 16.1098C6.12139 17.948 6.60694 19.6474 7.43931 21.104C7.75145 21.659 8.44509 21.8324 9 21.5896C9.90174 22.5607 11.0116 23.3237 12.2254 23.8092C12.3642 23.8786 12.5029 23.8786 12.6763 23.8786H12.8497C13.4046 23.8786 13.8902 23.4277 13.8902 22.8728C13.8902 22.8035 13.8902 22.7688 13.8555 22.6994L13.4393 20.1676C13.3699 19.6821 13.3353 19.1965 13.3353 18.711V18.2948L14.5145 17.3584C15.1734 17.4277 15.8324 17.2197 16.3179 16.7341L16.6994 16.3179C17.185 15.8671 17.3931 15.1734 17.3237 14.5491L18.2601 13.3353H18.6763C19.1618 13.3353 19.6821 13.4046 20.1329 13.474L22.6647 13.8902H22.8382C23.3931 13.8902 23.8786 13.4393 23.8786 12.8844V12.6763ZM12.8497 23.2023V23.3237H12.6763V23.2023H12.8497ZM12.7803 18.711C12.7803 19.2312 12.815 19.7514 12.8844 20.2717L13.3006 22.8035C13.3006 22.8035 13.3353 22.8382 13.3353 22.8728C13.3353 23.1156 13.0925 23.3237 12.8497 23.3237V23.2023C12.9374 23.2023 13.0304 23.1644 13.1019 23.0998C13.1519 23.0546 13.1856 23.0002 13.2021 22.9446L13.2013 22.9453L13.1871 22.8618L13.1611 22.7057L12.7646 20.2914V20.2874C12.7054 19.8432 12.6721 19.3989 12.6629 18.9545L9.66448 21.2901C10.3363 21.9934 11.1717 22.5773 12.0717 22.9989L12.4792 23.1771L12.4879 23.1802C12.527 23.1997 12.5661 23.2023 12.6763 23.2023V23.3237C12.5723 23.3237 12.5029 23.3237 12.4335 23.289C11.3237 22.8381 10.2832 22.1445 9.48555 21.2775L12.7803 18.711ZM6.81503 14.341C6.91908 14.3757 6.98844 14.4451 7.09249 14.4798L13.8208 17.185L8.96532 20.9653C8.58382 21.2775 8.09827 21.1734 7.92486 20.8266C7.12717 19.4393 6.6763 17.8439 6.6763 16.1098C6.6763 15.5202 6.71098 14.9306 6.81503 14.341ZM12.9538 6.6763C13.4046 6.6763 13.7514 6.95376 13.9249 7.33526L16.6647 14.1329C16.9075 14.7572 16.7688 15.4855 16.2832 15.9364L15.9017 16.3179C15.4509 16.8035 14.7225 16.9422 14.0983 16.6994L7.30058 13.9595C6.91908 13.7861 6.6763 13.4393 6.6763 12.9884C6.6763 12.8844 6.6763 12.7803 6.71098 12.6763C7.71676 9.93642 9.90174 7.75144 12.6416 6.74566C12.7457 6.71098 12.8497 6.6763 12.9538 6.6763ZM16.1098 6.6763C17.8092 6.6763 19.4046 7.16185 20.7919 7.95954C21.1387 8.13295 21.2428 8.6185 20.9306 9L17.1503 13.8555L14.4451 7.12717C14.4104 7.02312 14.341 6.95376 14.3064 6.84971C14.896 6.74566 15.4855 6.6763 16.1098 6.6763ZM16.1098 6.79769C15.551 6.79769 15.0196 6.85501 14.4884 6.94272C14.5111 6.98068 14.5377 7.02698 14.557 7.08224L17.1842 13.6143L20.8353 8.92591L20.8368 8.92354C21.1087 8.5913 21.0029 8.20023 20.7375 8.06752L20.7312 8.06437C19.3603 7.27618 17.7857 6.79769 16.1098 6.79769ZM23.2023 12.8844V12.6763C23.2023 12.6591 23.1983 12.6389 23.1889 12.6014C23.1828 12.5768 23.1746 12.5416 23.1708 12.5029C22.7091 11.4521 22.0602 10.4679 21.2554 9.69916L18.9199 12.6661C19.3676 12.683 19.8136 12.7407 20.2528 12.7993H20.2567L22.779 13.2139H22.8382V13.3353H22.7688L20.237 12.9191C19.7168 12.8497 19.1965 12.7803 18.6763 12.7803L21.2428 9.52023C22.1098 10.3179 22.8035 11.3584 23.289 12.4682C23.289 12.5376 23.3237 12.6069 23.3237 12.6763V12.8844C23.3237 13.1272 23.1156 13.3353 22.8382 13.3353V13.2139C23.0547 13.2139 23.2023 13.0545 23.2023 12.8844ZM6.79769 16.1098C6.79769 17.8223 7.2425 19.3967 8.02969 20.7659L8.03363 20.7722C8.16634 21.0376 8.55662 21.1433 8.88886 20.8715L8.89123 20.8699L13.5796 17.2189L7.04756 14.5925C6.9932 14.5735 6.94723 14.5471 6.90962 14.5247C6.82793 15.0515 6.79769 15.5793 6.79769 16.1098ZM6.79769 12.9884C6.79769 13.39 7.01102 13.6946 7.35103 13.8492L14.1416 16.5867C14.6874 16.7988 15.3149 16.6965 15.7323 16.3156L16.2809 15.7669C16.6618 15.3496 16.7642 14.7229 16.552 14.1771L13.8145 7.38492C13.6569 7.0386 13.3485 6.79769 12.9538 6.79769C12.873 6.79769 12.7882 6.82475 12.6802 6.86075L12.6795 6.85996C9.97586 7.85364 7.81896 10.0105 6.82528 12.7141C6.79776 12.7967 6.79769 12.8817 6.79769 12.9884ZM24 12.8844C24 13.5114 23.4546 14.0116 22.8382 14.0116H22.6545L22.645 14.01L20.1132 13.5938C19.6634 13.5246 19.1514 13.4566 18.6763 13.4566H18.32L17.4482 14.5854C17.5052 15.2293 17.2867 15.9385 16.7822 16.407L16.407 16.8161L16.4038 16.82C15.9031 17.3207 15.2282 17.5402 14.5523 17.4829L13.4566 18.3523V18.711C13.4566 19.1899 13.4908 19.6688 13.5591 20.1479L13.9729 22.6671C13.9884 22.7012 13.9996 22.7326 14.0053 22.7664C14.0115 22.8041 14.0116 22.8406 14.0116 22.8728C14.0116 23.4999 13.4661 24 12.8497 24H12.6763C12.5107 24 12.3459 24.0009 12.1805 23.9212C10.9749 23.4389 9.87124 22.6871 8.96768 21.7315C8.3778 21.9465 7.66513 21.7524 7.33369 21.1632C6.4917 19.6891 6 17.969 6 16.1098C6 15.3574 6.06756 14.6025 6.23489 13.8783C6.06593 13.6167 6 13.2977 6 12.9884C6 12.8268 5.99859 12.628 6.07725 12.4611C7.16465 9.5146 9.47992 7.19933 12.4264 6.11193C12.5831 6.0364 12.7704 6 12.9538 6C13.306 6 13.5935 6.10172 13.8445 6.26957C14.5652 6.10155 15.3204 6 16.1098 6C17.9331 6 19.652 6.49061 21.1261 7.36679L21.2436 7.43694C21.7742 7.79299 21.8988 8.45469 21.6968 9.00236C22.6516 9.90383 23.4046 10.9748 23.8873 12.216C23.9609 12.3664 24 12.52 24 12.6763V12.8844Z" fill="white"/>
</g>
<defs>
<clipPath id="clip0_4956_4957">
<rect width="30" height="30" fill="white"/>
</clipPath>
</defs>
</svg>
