<svg height="40" viewBox="0 0 40 40" width="40"
  xmlns="http://www.w3.org/2000/svg"
  xmlns:xlink="http://www.w3.org/1999/xlink">
  <clipPath id="a">
    <path d="m3.508 2.793h34v34h-34z"/>
  </clipPath>
  <g transform="translate(-.507 .207)">
    <rect fill="#383838" height="40" rx="20" width="40" x=".507" y="-.207"/>
    <g clip-path="url(#a)">
      <path d="m8.3 11.875a10.62 10.62 0 0 1 -5.1-1.97 9.376 9.376 0 0 1 -3.155-4.087.514.514 0 0 1 0-.43 8.085 8.085 0 0 1 2.8-3.336 11.113 11.113 0 0 1 5.038-1.908 15.067 15.067 0 0 1 2.065-.144h.137.158a10.987 10.987 0 0 1 4.711 1.188 22.629 22.629 0 0 1 5.562 3.927.332.332 0 0 0 .2.115c.053 0 .11-.034.188-.115a41.6 41.6 0 0 0 4.062-4.8.58.58 0 0 1 .452-.3h.049a.5.5 0 0 1 .456.212.434.434 0 0 1 -.023.52l-.128.176c-.246.339-.5.691-.763 1.028a41.283 41.283 0 0 1 -3.434 3.9c-.114.113-.113.173 0 .29a40.786 40.786 0 0 1 4.225 4.959l.021.029c.027.037.054.076.079.115a.443.443 0 0 1 -.127.66.612.612 0 0 1 -.311.09.557.557 0 0 1 -.446-.237c-.11-.145-.217-.3-.322-.44-.128-.177-.26-.36-.4-.536a42.225 42.225 0 0 0 -3.421-3.932c-.069-.07-.119-.1-.167-.1a.28.28 0 0 0 -.172.1 23.851 23.851 0 0 1 -4.835 3.574 12.564 12.564 0 0 1 -4.361 1.5 9.333 9.333 0 0 1 -1.262.077 13.869 13.869 0 0 1 -1.776-.125zm.629-7.5a8.8 8.8 0 0 1 .214 2.547 4.617 4.617 0 0 1 -1.128 2.841 4.444 4.444 0 0 1 -1.082.867 11.991 11.991 0 0 0 3.049.411c.253 0 .5-.009.747-.026a10.317 10.317 0 0 0 3.839-1.115 22.622 22.622 0 0 0 5.316-3.8c.118-.109.062-.16-.021-.236a23.153 23.153 0 0 0 -4.7-3.484 10.718 10.718 0 0 0 -3.877-1.34 12.358 12.358 0 0 0 -1.477-.089 12.164 12.164 0 0 0 -3.8.605 8.156 8.156 0 0 0 -4.82 3.837.423.423 0 0 0 -.024.423 8.946 8.946 0 0 0 3.655 3.984 1.544 1.544 0 0 0 .793.247 1.537 1.537 0 0 0 .848-.288l.018-.011.021-.012a3.268 3.268 0 0 0 1.517-2.36 7.353 7.353 0 0 0 -.117-2.8.5.5 0 0 1 .412-.654.526.526 0 0 1 .1-.01.538.538 0 0 1 .516.463zm-4.159 2.85a2.221 2.221 0 0 1 -1.481-.572 1.791 1.791 0 0 1 .026-2.694 2.2 2.2 0 0 1 1.477-.552h.024a2.194 2.194 0 0 1 1.48.574 1.787 1.787 0 0 1 -.025 2.692 2.2 2.2 0 0 1 -1.477.552zm-1.016-1.925a1 1 0 0 0 1.029.959h.017a1.1 1.1 0 0 0 .737-.274.918.918 0 0 0 .312-.677 1 1 0 0 0 -1.049-.946 1 1 0 0 0 -1.046.938z" fill="#f9f9f9" transform="translate(7.508 13.793)"/>
    </g>
  </g>
</svg>