<svg width="31" height="30" viewBox="0 0 31 30" fill="none" xmlns="http://www.w3.org/2000/svg">
<g clip-path="url(#clip0_4956_4942)">
<rect x="0.25" width="30" height="30" rx="15" fill="#3E3A36"/>
<path d="M17.417 4.9248C17.5195 4.9248 17.6155 4.9758 17.6846 5.04492C17.7537 5.11404 17.8047 5.20998 17.8047 5.3125C17.8047 5.55524 17.6084 5.7002 17.417 5.7002H17.1797V10.4629C18.8219 11.3032 19.9922 13.0333 19.9922 15V22.5C19.9922 23.9484 18.8248 25.0752 17.417 25.0752H12.417C10.9693 25.0752 9.8418 23.9477 9.8418 22.5V15C9.8418 13.0338 10.9731 11.3025 12.6543 10.4619V5.7002H12.417C12.3043 5.7002 12.2056 5.6656 12.1348 5.59473C12.0639 5.52385 12.0293 5.42519 12.0293 5.3125C12.0293 5.12111 12.1742 4.9248 12.417 4.9248H17.417ZM13.4297 10.5078C13.4297 10.7728 13.2558 11.0298 13.042 11.1582L13.0352 11.1621V11.1611C11.5766 11.852 10.6172 13.3106 10.6172 15V22.5C10.6172 23.5133 11.4037 24.2998 12.417 24.2998H17.417C18.3922 24.2998 19.2168 23.5123 19.2168 22.5V15C19.2168 13.4171 18.34 12.0359 17.0596 11.2998L16.7979 11.1611C16.5345 11.0295 16.4043 10.7664 16.4043 10.5078V5.7002H13.4297V10.5078ZM14.4326 14.4795C14.692 14.18 15.1335 14.1702 15.3623 14.4795L15.667 14.8125C15.994 15.1805 16.3748 15.6474 16.7031 16.1455C17.1389 16.8065 17.4922 17.5351 17.4922 18.1641C17.4922 19.0028 17.2013 19.6393 16.7295 20.0654C16.2589 20.4904 15.615 20.7002 14.917 20.7002C13.4701 20.7002 12.3418 19.5734 12.3418 18.1641C12.3418 17.5357 12.6842 16.8068 13.1104 16.1455C13.5384 15.4813 14.0594 14.8724 14.4326 14.4795ZM14.9141 15.1113C14.574 15.463 14.1365 16.0135 13.7686 16.5654L13.7676 16.5645C13.3398 17.2258 13.1172 17.7964 13.1172 18.1641C13.1172 19.1372 13.9027 19.9248 14.917 19.9248C15.4506 19.9248 15.8998 19.7721 16.1953 19.5137C16.4896 19.2561 16.7168 18.8482 16.7168 18.1641C16.7168 17.9841 16.6537 17.7512 16.5332 17.4766C16.4133 17.2033 16.2398 16.8943 16.0264 16.5645C15.6597 16.0146 15.2228 15.465 14.9141 15.1113Z" fill="white" stroke="white" stroke-width="0.15"/>
</g>
<defs>
<clipPath id="clip0_4956_4942">
<rect width="30" height="30" fill="white" transform="translate(0.25)"/>
</clipPath>
</defs>
</svg>
